<?xml version="1.0" standalone="no"?>
<!DOCTYPE svg PUBLIC "-//W3C//DTD SVG 20010904//EN"
 "http://www.w3.org/TR/2001/REC-SVG-20010904/DTD/svg10.dtd">
<svg version="1.0" xmlns="http://www.w3.org/2000/svg"
 width="258.000000pt" height="55.000000pt" viewBox="0 0 258.000000 55.000000"
 preserveAspectRatio="xMidYMid meet">

<g transform="translate(0.000000,55.000000) scale(0.100000,-0.100000)"
fill="#000000" stroke="none">
<path d="M2272 538 c-9 -9 -12 -82 -12 -265 l0 -253 25 -12 c21 -9 28 -8 45 7
16 14 20 31 20 78 l0 59 70 -63 c101 -91 114 -98 139 -75 12 11 21 27 21 36 0
9 -34 47 -75 84 l-75 67 65 55 c67 57 77 80 49 108 -25 26 -39 20 -116 -49
l-73 -65 -5 141 c-4 109 -8 142 -20 149 -21 13 -44 12 -58 -2z"/>
<path d="M972 508 c-17 -17 -17 -469 0 -486 8 -8 57 -12 154 -12 116 0 145 3
158 16 22 21 20 40 -6 58 -17 12 -48 16 -125 16 l-103 0 0 198 c0 208 -3 222
-45 222 -12 0 -26 -5 -33 -12z"/>
<path d="M22 498 c-9 -9 -12 -76 -12 -239 0 -194 2 -230 16 -243 8 -9 22 -16
29 -16 32 0 45 30 45 106 l0 74 45 0 c45 0 45 0 107 -85 67 -92 89 -107 119
-79 28 25 24 44 -27 113 l-47 62 36 30 c43 35 61 85 54 146 -5 51 -29 88 -77
121 -30 20 -45 22 -154 22 -82 0 -126 -4 -134 -12z m249 -97 c36 -36 37 -73 4
-106 -21 -22 -33 -25 -100 -25 l-75 0 0 80 0 80 71 0 c65 0 73 -2 100 -29z"/>
<path d="M499 359 c-20 -20 -21 -30 -17 -124 4 -84 9 -109 28 -139 62 -102
197 -122 287 -43 52 45 63 81 63 196 0 101 -10 131 -44 131 -32 0 -44 -34 -48
-138 -3 -99 -4 -105 -31 -128 -39 -33 -96 -33 -129 1 -31 30 -38 63 -38 166 0
67 -3 80 -19 89 -26 14 -28 13 -52 -11z"/>
<path d="M1488 370 c-166 -30 -196 -268 -44 -347 38 -20 140 -22 185 -4 37 16
52 55 28 78 -14 15 -21 15 -70 -1 -57 -18 -93 -12 -129 21 -41 36 -24 43 107
43 114 0 125 2 135 20 16 30 1 88 -33 127 -49 56 -107 76 -179 63z m110 -106
c12 -14 22 -29 22 -35 0 -5 -40 -9 -90 -9 -68 0 -90 3 -90 13 0 15 36 51 60
60 28 11 75 -3 98 -29z"/>
<path d="M1895 365 c-51 -18 -101 -72 -115 -125 -39 -144 102 -279 232 -223
41 18 44 18 61 1 22 -23 32 -23 57 2 18 18 20 33 20 170 0 137 -2 152 -20 170
-25 25 -35 25 -58 2 -17 -17 -20 -17 -58 0 -47 21 -66 22 -119 3z m139 -106
c58 -69 15 -169 -74 -169 -92 0 -132 109 -65 176 18 18 35 24 69 24 37 0 48
-5 70 -31z"/>
</g>
</svg>
